<svg width="128" height="21" fill="none" xmlns="http://www.w3.org/2000/svg"><path d="M0 13.552c0 2.096 1.259 3.861 3.777 5.296C6.295 20.283 9.382 21 13.037 21c3.635 0 6.6-.397 8.894-1.19 2.762-.957 4.143-2.36 4.143-4.213 0-1.933-1.178-3.327-3.534-4.181-1.34-.489-3.95-.997-7.828-1.526l-3.015-.428c-3.676-.529-6.113-.997-7.31-1.404-1.788-.61-2.681-1.495-2.681-2.655 0-1.1 1.056-1.995 3.168-2.686 2.111-.692 4.833-1.038 8.163-1.038 3.066 0 5.721.57 7.965 1.71 2.244 1.139 3.366 2.492 3.366 4.059 0 .57.284.854.853.854.568 0 .853-.285.853-.854 0-2.096-1.26-3.862-3.777-5.296C19.779.717 16.692 0 13.037 0c-3.635 0-6.6.397-8.894 1.19C1.38 2.147 0 3.55 0 5.403 0 7.336 1.229 8.74 3.686 9.615c1.177.407 3.777.915 7.797 1.526l1.432.214 1.553.213c3.716.509 6.184.977 7.402 1.404 1.665.57 2.498 1.445 2.498 2.625 0 1.1-1.056 1.995-3.168 2.686-2.112.692-4.833 1.038-8.163 1.038-3.066 0-5.722-.57-7.965-1.71-2.244-1.139-3.366-2.492-3.366-4.059 0-.57-.285-.854-.853-.854-.569 0-.853.285-.853.854zm57.683 5.678L46.322 7.844 57.47 2.26c.305-.143.457-.387.457-.733 0-.325-.132-.57-.396-.732a.796.796 0 0 0-.822-.03l-23.15 11.598V1.526c0-.57-.284-.854-.853-.854-.568 0-.853.284-.853.854V19.84c0 .55.285.824.853.824.569 0 .853-.274.853-.824v-5.586l11.179-5.616L56.465 20.42a.826.826 0 0 0 .61.244c.568 0 .852-.285.852-.854a.793.793 0 0 0-.244-.58zm38.037-.122L79.333.03l-15.87 19.077a.77.77 0 0 0-.183.518c0 .59.295.886.884.886a.75.75 0 0 0 .609-.306l4.813-5.799h19.86l4.995 5.8a.867.867 0 0 0 .67.305c.548 0 .822-.275.822-.825a.853.853 0 0 0-.213-.58zm-24.703-6.41l8.346-10.042 8.65 10.042H71.018zm54.455-2.198C127.157 9.422 128 7.895 128 5.922c0-1.486-.528-2.763-1.584-3.831S124.091.488 122.609.488h-20.652v20.024h20.652c1.482 0 2.751-.535 3.807-1.603S128 16.564 128 15.08c0-1.974-.843-3.5-2.528-4.579zm-2.863-8.302c1.015 0 1.883.366 2.604 1.099.721.732 1.081 1.607 1.081 2.625 0 1.017-.36 1.892-1.081 2.625-.721.732-1.589 1.098-2.604 1.098h-18.977V2.198h18.977zm0 16.604h-18.977v-7.447h18.977c1.015 0 1.883.366 2.604 1.098.721.733 1.081 1.608 1.081 2.626 0 1.017-.36 1.892-1.081 2.624-.721.733-1.589 1.1-2.604 1.1z" fill="#fff"/></svg>