<svg width="67" height="69" fill="none" xmlns="http://www.w3.org/2000/svg"><path d="M1.91 24.6c2.138-6.586 6.35-12.33 12.03-16.408A33.55 33.55 0 0 1 33.5 1.918a33.55 33.55 0 0 1 19.561 6.275c5.678 4.077 9.89 9.822 12.029 16.406H67c-2.136-7.103-6.553-13.337-12.59-17.77A35.34 35.34 0 0 0 33.5 0a35.34 35.34 0 0 0-20.91 6.829C6.554 11.262 2.137 17.496 0 24.599h1.91zm63.111 19.913c-2.137 6.585-6.35 12.33-12.028 16.407a33.551 33.551 0 0 1-19.561 6.275A33.551 33.551 0 0 1 13.87 60.92c-5.678-4.077-9.89-9.822-12.028-16.407H0c2.155 7.077 6.576 13.282 12.605 17.693A35.341 35.341 0 0 0 33.465 69a35.341 35.341 0 0 0 20.862-6.794c6.03-4.411 10.45-10.616 12.605-17.693h-1.91z" fill="#fff"/><path d="M43.507 21.995c-.035 0-.07-.018-.105-.052-.07-.035-.07-.086 0-.155l2.317-2.537c.07-.07.141-.07.211 0 .07.069.07.138 0 .207l-2.318 2.485c-.035.034-.07.052-.105.052zm0 0c-.07 0-.105-.035-.105-.104l-1.16-4.866c0-.104.036-.155.106-.155.105-.035.158 0 .158.103l1.16 4.866c0 .104-.036.156-.106.156h-.053zm2.318-2.537h-.053l-3.477-2.381c-.07-.035-.07-.087 0-.156 0-.138.053-.155.158-.052l3.477 2.382c.035.069.035.12 0 .155 0 .035-.035.052-.105.052zm-5.268 5.695c-.035 0-.053-.018-.053-.052-.035-.035-.052-.087-.052-.156l2.95-3.157c.07-.07.14-.07.21 0 .106 0 .106.051 0 .155l-2.95 3.158c0 .034-.035.052-.105.052zm0 0h-.053l-2.633-1.45c-.07 0-.106-.052-.106-.155.07-.07.14-.087.211-.052l2.687 1.398c.035.034.052.103.052.207-.035.034-.088.052-.158.052zm-2.634-1.398h-.052c-.07-.07-.106-.121-.106-.156l.843-4.193c0-.069.053-.103.158-.103.07 0 .105.051.105.155l-.842 4.193c0 .07-.035.104-.106.104zm2.634 1.398c-.07 0-.105-.035-.105-.104l-1.844-5.591c0-.104.035-.155.106-.155.105-.104.157-.087.157.051l1.844 5.643c0 .035-.035.086-.105.155h-.053zm2.95-3.158h-.053l-4.793-2.485c-.035 0-.053-.052-.053-.156.07-.069.14-.086.21-.051l4.742 2.433c.07.069.087.138.052.207-.035.034-.07.052-.105.052zm-4.74-2.434c-.106 0-.159-.051-.159-.155l.106-3.675c0-.104.035-.156.105-.156.105 0 .158.052.158.156l-.105 3.675c0 .104-.036.155-.106.155zm0 0l-.106-.051c-.07-.07-.07-.138 0-.207l3.634-2.434c.036-.034.106-.017.211.052.035.035.018.087-.053.156L38.82 19.51l-.053.051zm3.634-2.433c-.035 0-.053-.017-.053-.051l-3.53-1.243c-.07 0-.104-.052-.104-.155.07-.07.122-.086.157-.052l3.582 1.242c.141 0 .159.052.053.156 0 .069-.035.103-.105.103zm-4.478 6.627h-.052l-2.792-.984c-.07-.069-.088-.12-.053-.155 0-.07.053-.104.158-.104l2.792.984c.14 0 .158.052.053.155 0 .07-.035.104-.106.104zm-2.791-.984c-.036 0-.07-.017-.106-.052-.07-.034-.07-.086 0-.155l3.635-3.261c.105-.104.158-.087.158.051.035.07.035.121 0 .156l-3.582 3.21c-.035.034-.07.051-.105.051zm3.634-3.21h-.052L34.71 18.32c-.07 0-.105-.052-.105-.155 0-.07.052-.104.158-.104l4.003 1.243c.07 0 .105.051.105.155 0 .069-.035.104-.105.104zM34.71 18.32c-.035 0-.07-.017-.105-.052 0-.103.017-.155.052-.155l4.11-2.485c.07-.069.14-.052.21.052 0 .069-.018.12-.053.155l-4.109 2.485h-.105zm4.109-2.485l-3.16-.362c-.106 0-.159-.052-.159-.155.07-.07.123-.104.158-.104l3.213.362c.07.07.106.121.106.156 0 .069-.053.103-.158.103zM34.71 18.32c-.07 0-.105-.052-.105-.155l.948-2.848c0-.103.053-.138.158-.103.14 0 .158.052.053.155l-.896 2.847c0 .07-.053.104-.158.104zm.422 4.452c-.07 0-.106-.034-.106-.103l-.421-4.453c0-.103.035-.155.105-.155.105 0 .158.035.158.104l.421 4.452c0 .103-.052.155-.157.155zm-3.003-7.144c-.035 0-.088-.034-.158-.103 0-.104.053-.156.158-.156l3.53-.155c.07 0 .105.035.105.104.035.103 0 .155-.106.155l-3.53.155zm2.581 2.692c-.035 0-.053-.017-.053-.052l-2.633-2.692c-.07-.034-.07-.086 0-.155s.14-.069.21 0l2.581 2.692c.106.104.106.155 0 .155 0 .035-.035.052-.105.052zm-3.845 1.553c-.07-.034-.106-.086-.106-.155l1.265-4.245c0-.07.052-.104.158-.104.07.07.087.121.052.156l-1.211 4.245c-.07.069-.123.103-.158.103zm0 0c-.07 0-.106-.034-.106-.103-.105-.104-.087-.156.053-.156l3.898-1.553c.07 0 .123.035.158.104 0 .069-.035.12-.105.155l-3.846 1.553h-.052zm4.267 2.9h-.053l-4.267-2.952c-.14 0-.158-.051-.053-.155.07-.069.14-.086.211-.052l4.267 2.9c.07.068.07.137 0 .206 0 .035-.035.052-.105.052zm-2.687.776c-.07 0-.105-.035-.105-.104-.07-.103-.036-.155.105-.155l2.634-.777c.105 0 .175.035.21.104 0 .103-.035.155-.105.155l-2.686.725-.053.052zm-1.264 2.174h-.053c-.105-.07-.123-.138-.053-.207l1.265-2.174c.07-.07.122-.087.158-.052.105.034.123.086.052.155l-1.264 2.226c0 .035-.035.052-.105.052zm.895 2.847c-.105 0-.158-.017-.158-.052l-.843-2.899c-.035-.034-.017-.086.053-.155.105 0 .158.035.158.104l.896 2.847c0 .103-.035.155-.106.155zm3.793 2.433h-.053l-3.845-2.433c-.035-.034-.053-.086-.053-.155.07-.104.14-.12.21-.052l3.794 2.433c.14 0 .158.052.052.155 0 .035-.035.052-.105.052zm-3.424-7.454c-.07 0-.105-.035-.105-.104l-1.58-3.675c-.106-.104-.088-.156.052-.156.07-.034.14-.017.21.052l1.528 3.676c.106.103.088.155-.052.155 0 .034-.018.052-.053.052zm-1.264 2.174h-.053l-3.53-1.294c-.14 0-.157-.052-.052-.156 0-.138.053-.155.158-.051l3.53 1.242c.07.07.087.12.052.155 0 .07-.035.104-.105.104zm-3.53-1.294c-.07 0-.105-.035-.105-.104-.035-.034 0-.086.105-.155l4.794-.88c.035-.035.088 0 .158.103 0 .035-.035.087-.105.156l-4.794.88h-.053zm0 0H27.6c-.07-.07-.088-.138-.053-.207l3.213-4.556c.07-.069.14-.086.211-.052.07.07.07.138 0 .207l-3.213 4.556c0 .034-.035.052-.106.052zm3.214-4.556c-.035 0-.053-.017-.053-.052l-2.845-2.743c-.07-.07-.07-.138 0-.208.07-.069.14-.069.211 0l2.792 2.744c.07.07.07.138 0 .207 0 .035-.035.052-.105.052zm-2.792-2.744c-.035 0-.088-.034-.158-.103 0-.104.035-.155.105-.155l4.056-1.502c.106 0 .158.035.158.104.035.034.018.086-.052.155l-4.057 1.45-.052.051zm-.422 7.3c-.07 0-.105-.035-.105-.104l.369-7.35c0-.035.017-.07.053-.105.035-.034.07-.034.105 0 .07 0 .105.035.105.104l-.369 7.351c0 .07-.052.104-.158.104zm0 0c-.035 0-.07-.018-.105-.052l-2.054-2.796c-.035-.034-.018-.086.052-.155.106-.103.158-.103.158 0l2.055 2.796c.035.103.035.172 0 .207h-.106zm-2.054-2.796h-.053c-.07-.069-.087-.12-.052-.155l2.476-4.556c0-.138.052-.155.157-.052.07.07.088.121.053.156l-2.423 4.556c-.035.034-.088.051-.158.051zm-.316-2.278h-.105c-.035-.103-.035-.172 0-.207l2.792-2.277c.07-.07.14-.07.21 0 .035.069.018.138-.053.207l-2.739 2.277h-.105zm.316 2.278c-.07 0-.105-.034-.105-.103l-.37-2.278c0-.035.054-.086.159-.155.07 0 .105.051.105.155l.37 2.226c0 .104-.036.155-.106.155h-.053zm-2.581 1.916h-.053c-.14 0-.158-.052-.053-.156l2.266-4.193c0-.138.052-.155.158-.052.14 0 .158.052.052.156l-2.265 4.193c0 .034-.035.052-.105.052zm0 0c-.07 0-.105-.018-.105-.052-.07-.035-.07-.086 0-.155l2.633-1.916c.106-.103.158-.103.158 0 .07.07.07.138 0 .207l-2.633 1.916h-.053zm4.635.88l-4.688-.88c-.07 0-.105-.052-.105-.156.07-.069.123-.086.158-.051l4.688.828c.07.069.105.12.105.155-.035.07-.087.104-.158.104zm-5.11 2.588c-.07 0-.105-.052-.105-.155l.422-3.417c0-.103.052-.155.158-.155.07.069.105.12.105.155l-.421 3.469c0 .069-.053.103-.158.103zm0 0l-.105-.103c0-.07.018-.121.053-.156l5.11-2.536c.105-.104.158-.087.158.051.07.07.052.121-.053.156l-5.057 2.588h-.105zm.949 4.193c-.035 0-.088-.034-.158-.103l-.896-4.193c0-.104.035-.156.106-.156.105 0 .158.035.158.104l.895 4.193c0 .104-.035.155-.105.155zm0 0c-.07 0-.105-.017-.105-.051-.106-.104-.106-.156 0-.156l3.37-2.122c.106 0 .177.017.212.052 0 .103-.018.172-.053.207l-3.371 2.07h-.053zm3.371-2.07h-.105l-4.267-2.123c-.035-.034-.053-.103-.053-.207.07-.069.14-.086.211-.052l4.267 2.123c.035.034.053.103.053.207l-.106.052zm0 0h-.052c-.07 0-.106-.052-.106-.156l.843-4.71c0-.07.053-.104.158-.104.07.069.105.12.105.155l-.842 4.711c0 .07-.035.104-.106.104zm0 0c-.07 0-.105-.018-.105-.052-.07-.07-.07-.138 0-.207l4.32-3.365c.07-.07.14-.07.21 0 .105.103.088.155-.053.155l-4.32 3.417-.052.052zm.369 4.245c-.07 0-.105-.035-.105-.104l-.422-4.245c0-.103.035-.155.106-.155.105 0 .158.034.158.103l.421 4.245c0 .104-.035.156-.105.156h-.053zm3.95.051l-3.95-.051c-.105 0-.158-.052-.158-.156 0-.069.053-.103.158-.103l3.95.052c.071 0 .106.051.106.155 0 .069-.035.103-.105.103zm0 0h-.105l-4.32-4.348c-.07-.035-.07-.086 0-.155.036-.035.089-.035.159 0l4.372 4.296c.07.07.07.138 0 .207h-.105zm-4.319-4.296c-.105 0-.158-.035-.158-.104 0-.103.035-.155.106-.155l5.215-.57c.105 0 .158.052.158.156 0 .069-.035.103-.106.103l-5.215.57zm4.32 4.296c-.14 0-.176-.051-.106-.155l.843-4.866c0-.07.053-.104.158-.104.07.07.106.121.106.156l-.843 4.866c-.07.069-.123.103-.158.103zm0 0c-.07 0-.106-.017-.106-.051-.105-.104-.087-.156.053-.156l4.688-2.485c.106 0 .158.018.158.052.035.07.018.138-.052.207l-4.689 2.433h-.052zm-3.951-.051h-.053l-3.792-2.175c-.036-.034-.036-.103 0-.207 0-.103.052-.103.158 0l3.74 2.123c.07.103.087.172.052.207 0 .034-.035.052-.105.052zm-.58 1.812c-.07 0-.105-.018-.105-.052l-3.16-3.986c-.07-.035-.07-.087 0-.156s.14-.069.21 0l3.16 3.986c.036.07.018.139-.052.208h-.052zm0 0h-.052c-.07 0-.105-.052-.105-.156l.632-1.812c0-.069.052-.103.158-.103.07.069.105.12.105.155l-.632 1.812c0 .069-.035.104-.105.104zm5.32 2.38h-.052l-5.32-2.38c-.07-.035-.105-.087-.105-.156.035-.069.105-.103.21-.103l5.32 2.381c.036.035.053.104.053.207-.035 0-.052.009-.052.026s-.018.026-.053.026zm0 0c-.104 0-.157-.034-.157-.103l-.738-4.141c-.035-.035 0-.086.106-.155.035 0 .087.034.158.103l.737 4.142c0 .103-.035.155-.105.155zm0 0c-.07 0-.104-.016-.104-.05l-4.689-4.194c-.07-.035-.07-.086 0-.155 0-.104.053-.104.158 0l4.689 4.193c.035.069.035.12 0 .155l-.053.052zm0 0c-.07 0-.122-.016-.157-.05 0-.104.017-.174.053-.208l2.791-1.812c.036-.034.106-.017.211.052 0 .069-.017.12-.053.155l-2.791 1.864h-.053zm2.74-1.811l-.053-.052-3.529-2.278c-.07-.069-.088-.138-.053-.207.035-.034.106-.034.211 0l3.53 2.278c.035.035.052.104.052.207-.035 0-.061.009-.079.026-.017.017-.044.026-.079.026zm0 0c-.07-.07-.105-.12-.105-.155l1.159-4.763c0-.069.052-.104.158-.104.07.07.087.121.052.156l-1.106 4.762c0 .07-.053.104-.158.104zm4.161-3.468h-.052l-3.003-1.295c-.07-.069-.088-.12-.052-.155 0-.069.052-.104.158-.104l3.002 1.295c.07.069.106.138.106.207-.036.034-.088.052-.159.052zm-4.16 3.468l-.054-.052c-.07-.069-.07-.138 0-.207l4.162-3.417c.035-.034.088-.034.158 0 .07.07.07.139 0 .208l-4.162 3.416c-.035.035-.07.052-.105.052zm4.95 2.692h-.052l-4.952-2.744c-.035 0-.052-.052-.052-.155.07-.07.14-.086.21-.052l4.9 2.744c.14 0 .157.052.052.155 0 .035-.035.052-.105.052zm0 0h-.052c-.14 0-.158-.052-.053-.155l1.475-3.262c0-.069.053-.103.158-.103.07.069.088.138.053.207l-1.475 3.261c0 .035-.035.052-.105.052zm-4.95-2.692c-.071 0-.106-.052-.106-.155 0-.07.035-.104.105-.104l6.427-.57c.07 0 .105.035.105.104 0 .104-.035.156-.105.156l-6.374.569h-.053zm6.426-.57c-.07 0-.106-.017-.106-.051l-2.265-2.9c-.105-.103-.088-.155.053-.155.035-.034.088-.034.158 0l2.265 2.9c.035.069.018.138-.053.207h-.052zm2.37-.051c-.035 0-.053-.017-.053-.052l-4.635-2.795c-.105-.07-.123-.139-.053-.208.035-.034.105-.051.21-.051l4.584 2.847c.07.034.087.103.052.207-.035.035-.07.052-.105.052zm-2.37.052c-.106 0-.158-.035-.158-.104 0-.104.052-.155.158-.155l2.37-.052c.105 0 .158.034.158.103 0 .104-.053.156-.158.156l-2.37.052zm2.95 5.487c-.07 0-.106-.035-.106-.104l-.58-5.539c-.07-.103-.034-.155.106-.155.035 0 .088.034.158.103l.58 5.54c0 .103-.036.155-.106.155h-.053zm0 0l-.106-.104-2.95-5.435c-.07-.07-.052-.138.053-.207.07 0 .123.017.158.051l3.003 5.488c0 .103-.018.172-.053.207h-.105zm0 0h-.053l-4.425-2.226c-.14 0-.158-.052-.053-.155 0-.138.053-.156.158-.052l4.478 2.174c.035.035.053.086.053.155-.07.07-.123.104-.158.104zm-8.06-1.087h-.053l-4.108-2.02c-.036-.034-.053-.103-.053-.206.035-.035.105-.052.21-.052l4.11 2.019c.034.034.052.086.052.155-.07.07-.123.104-.158.104zm0 0c-.07 0-.105-.035-.105-.104l-1.317-3.83c0-.104.035-.156.105-.156.035-.034.088-.017.158.052l1.317 3.83c0 .104-.035.173-.105.208h-.053zm0 0c-.07 0-.105-.035-.105-.104 0-.103.035-.155.105-.155l3.582-1.087c.105-.035.158-.017.158.052.035.103.018.155-.053.155l-3.634 1.139h-.053zm2.054 2.899c-.07 0-.105-.017-.105-.052l-2.054-2.899c0-.103.017-.172.052-.207.035-.035.106-.017.211.052l2.002 2.899c.035.069.017.138-.053.207h-.053zm0 0h-.052c-.07-.07-.106-.12-.106-.155l1.633-4.038c0-.138.053-.156.158-.052.14 0 .158.052.053.155l-1.58 3.986c0 .07-.035.104-.106.104zm0 0c-.035 0-.087-.035-.158-.104 0-.034.035-.086.106-.155l6.057-1.812c.07 0 .123.035.159.104 0 .069-.036.12-.106.155l-6.005 1.812h-.053zm8.113-3.469c-.07 0-.123-.017-.159-.051l-2.633-3.883c-.07-.035-.053-.104.052-.207.035-.035.088-.017.158.052l2.687 3.882c0 .104-.018.173-.053.207h-.052zm-2.108 1.657l-.052-.052c-.07-.069-.07-.138 0-.207l2.054-1.605c.106-.103.158-.103.158 0 .106.104.106.156 0 .156l-2.054 1.656c0 .035-.035.052-.105.052zm-7.216 4.66h-.053c-.14 0-.158-.053-.053-.156l1.16-2.847c.035-.07.105-.104.21-.104.07.069.088.138.053.207l-1.16 2.847c-.034.035-.087.052-.157.052zm3.687 1.19l-3.687-1.19c-.07 0-.105-.053-.105-.156 0-.07.052-.104.157-.104l3.688 1.19c.07 0 .105.053.105.156-.07.07-.123.104-.158.104zm0 0l-.105-.104-2.476-3.986c-.07-.069-.07-.138 0-.207.105 0 .176.017.21.052l2.477 4.038c.105.103.105.155 0 .155-.036.035-.07.052-.106.052zm0 0l-.105-.104c-.035-.034-.018-.086.053-.155l4.582-2.589c.07-.069.123-.051.158.052.036.035.018.087-.052.156l-4.53 2.588c-.036.035-.07.052-.106.052zm4.583-2.64l-7.111-1.398c-.07 0-.106-.052-.106-.155.07-.07.123-.104.158-.104l7.112 1.398c.07.069.088.12.052.155 0 .07-.035.104-.105.104zm0 0c-.07 0-.105-.018-.105-.052l-1.054-3.262c0-.103.035-.155.105-.155.07 0 .123.035.159.104l1 3.21c.036.103.018.155-.052.155h-.053zm1.738-1.398c-.07 0-.105-.035-.105-.104l-.738-3.468c0-.104.036-.156.106-.156.105 0 .158.035.158.104l.737 3.468c0 .104-.035.156-.105.156h-.053zm0 0h-.052l-2.792-1.864c-.035 0-.053-.052-.053-.155.07-.07.14-.086.21-.052l2.793 1.812c.07.069.07.138 0 .207 0 .035-.035.052-.106.052zm-1.738 1.398h-.105c-.035-.104-.035-.173 0-.208l1.79-1.397c.036-.035.088-.035.159 0 .105.103.105.155 0 .155l-1.739 1.45h-.105zm.895 3.21h-.052c-.07 0-.105-.053-.105-.156l.895-4.608c0-.069.053-.103.158-.103.07 0 .105.052.105.155L46.141 47c0 .069-.035.103-.105.103zm0 0c-.105 0-.157-.035-.157-.104l-.843-3.158c-.07-.104-.053-.156.052-.156.106-.034.158-.017.158.052l.896 3.21c0 .103-.035.155-.105.155zm0 0h-.052l-5.426-.57c-.07 0-.105-.052-.105-.156 0-.069.053-.103.158-.103l5.425.57c.07 0 .106.051.106.155 0 .069-.035.103-.105.103zm-2.633 3.623c-.035 0-.053-.017-.053-.052-.14 0-.158-.051-.053-.155l2.634-3.624c0-.103.053-.103.158 0 .035 0 .053.052.053.155l-2.634 3.624c0 .035-.035.052-.105.052zm0 0c-.07 0-.106-.017-.106-.052l-2.844-4.193c-.035-.069-.018-.138.053-.207.105-.104.157-.086.157.052l2.845 4.193c.07.069.053.138-.053.207h-.052zm-9.06-3.934c-.07 0-.106-.018-.106-.052-.105-.104-.088-.156.053-.156l2.528-1.449c.105-.103.158-.086.158.052.035.069.035.12 0 .155l-2.581 1.45h-.053zm-.896 3.416c-.07 0-.105-.051-.105-.155l.842-3.417c.07-.069.14-.103.211-.103.07.069.088.138.053.207l-.843 3.365c0 .069-.053.103-.158.103zm0 0h-.053c-.035-.034-.053-.103-.053-.207l3.424-4.866c.07-.069.14-.069.211 0 .035.07.035.12 0 .155l-3.371 4.867c-.035.034-.088.051-.158.051zm3.002.673h-.052l-2.95-.673c-.07 0-.105-.051-.105-.155 0-.069.052-.103.157-.103l2.95.672c.07 0 .106.052.106.156 0 .069-.035.103-.106.103zm0 0h-.052c-.07-.069-.106-.12-.106-.155l.474-5.487c0-.104.053-.156.158-.156.07 0 .106.052.106.156l-.474 5.487c0 .104-.035.155-.106.155zm0 0l-.105-.051c-.07-.07-.07-.139 0-.207l4.109-4.35c.07-.068.14-.068.21 0 .07.07.07.139 0 .208l-4.108 4.349-.106.051zm0 0c-.105 0-.158-.051-.158-.155 0-.069.053-.103.158-.103l6.954-.156c.035 0 .087.035.158.104 0 .103-.053.155-.158.155l-6.954.155zm3.319 2.692l-.105-.051c-.07-.07-.07-.139 0-.208l3.634-2.847c.106 0 .176.017.211.052.105.104.105.155 0 .155l-3.687 2.848-.053.051zm0 0c-.035 0-.07-.017-.105-.051l-3.319-2.692c-.07-.035-.07-.087 0-.156.035-.103.088-.12.158-.051l3.319 2.691c.035.035.052.104.052.208l-.105.051zm-5.426-6.781l-2.95-.26c-.07 0-.105-.051-.105-.154 0-.07.053-.104.158-.104l2.897.259c.106.069.14.12.106.155 0 .07-.035.104-.106.104zm-.895 3.416c-.035 0-.07-.017-.105-.051l-2.055-3.728c-.035-.034-.018-.086.053-.155.105-.104.158-.086.158.052l2.107 3.727c0 .069-.018.12-.053.155h-.105zm-.316 4.918c-.07 0-.106-.051-.106-.155l.316-4.866c0-.104.053-.155.158-.155.07 0 .106.051.106.155l-.316 4.866c0 .104-.053.155-.158.155zm0 0c-.035 0-.053-.017-.053-.051-.035-.035-.053-.087-.053-.156l3.32-4.245c.034-.103.087-.12.157-.051.07.103.088.172.053.207l-3.319 4.245c-.035.034-.07.051-.105.051zm0 0c-.07 0-.106-.034-.106-.103 0-.104.035-.156.106-.156l6.584-1.553c.106 0 .158.035.158.104 0 .069-.035.12-.105.155l-6.585 1.553h-.052zm0 0l-4.162-.673c-.07 0-.105-.051-.105-.155.07-.069.123-.104.158-.104l4.161.673c.07 0 .106.052.106.156 0 .069-.053.103-.158.103zm-4.109-.673c-.07 0-.105-.017-.105-.051-.07-.035-.07-.087 0-.156l4.477-4.245c.035-.034.088-.034.158 0 .07.07.07.138 0 .207l-4.477 4.194-.053.051zm4.425-4.245l-5.373-.57c-.105 0-.158-.05-.158-.154.07-.07.123-.104.158-.104l5.425.57c.07 0 .106.051.106.155 0 .069-.053.103-.158.103zm-5.373-.57c-.035 0-.07-.016-.105-.05-.07-.035-.07-.087 0-.156l3.37-3.158c.036-.035.089-.035.159 0 .07.069.07.138 0 .207l-3.319 3.106-.105.052zm.948 4.815c-.035 0-.088-.034-.158-.103l-.948-4.815c0-.103.035-.155.105-.155.105 0 .158.034.158.104l.948 4.814c0 .104-.035.155-.105.155zm0 0h-.053l-3.898-1.915c-.14 0-.158-.052-.052-.155.07-.07.122-.087.158-.052l3.898 1.863c.07.07.087.139.052.208-.035.034-.07.051-.105.051zm-3.898-1.915h-.105c-.07-.07-.07-.138 0-.207l2.95-2.9c.07-.068.14-.068.21 0 .035.07.035.122 0 .156l-2.95 2.95h-.105zm2.95-2.9c-.105 0-.158-.05-.158-.154l.474-4.867c0-.069.053-.103.158-.103.07 0 .105.052.105.155l-.474 4.866c0 .07-.035.104-.105.104zm3.319-3.105c-.036 0-.053-.017-.053-.052l-2.897-1.708c-.07-.07-.07-.138 0-.207 0-.035.052-.052.158-.052l2.897 1.76c.035.069.035.12 0 .155 0 .07-.035.104-.105.104zm-3.32 3.106c-.034 0-.07-.017-.104-.052l-3.899-3.572c-.105 0-.105-.052 0-.155 0-.104.053-.104.158 0l3.951 3.572c.035.069.035.12 0 .155s-.07.052-.105.052zm-6.953-.155l-.105-.052c-.035-.035-.035-.104 0-.207l3.003-3.365c.07-.07.14-.07.21 0 .036.069.036.12 0 .155l-3.002 3.417-.106.052zm6.954.155l-6.954-.155c-.105 0-.157-.052-.157-.156 0-.069.052-.103.157-.103l6.954.155c.07 0 .105.052.105.155 0 .07-.035.104-.105.104zm-2.95 2.899h-.053l-4.056-3.106c-.07-.035-.07-.087 0-.156s.123-.086.158-.051l4.056 3.106c.035.069.035.12 0 .155 0 .035-.035.052-.105.052zm-1-6.471c-.071 0-.106-.035-.106-.104 0-.069.035-.12.105-.155l4.372-1.294c.106 0 .158.034.158.103.035.035.018.087-.052.156l-4.425 1.294h-.053zm4.424-1.294c-.035 0-.07-.018-.105-.052l-1.844-1.657c-.105-.069-.123-.138-.053-.207.07-.069.14-.069.21 0l1.845 1.709c.105.034.122.086.052.155l-.105.052zm-4.425 1.294h-.053c-.035-.035-.052-.104-.052-.207l2.528-3.003c.07-.069.14-.069.21 0 .036.035.036.104 0 .207l-2.528 2.951c0 .035-.035.052-.105.052z" fill="#fff"/></svg>