<svg width="67" height="26" fill="none" xmlns="http://www.w3.org/2000/svg"><path fill-rule="evenodd" clip-rule="evenodd" d="M29.573 17.191l-1.967-.005c-.382-.001-.464-.038-.483-.053-.013-.016-.043-.09-.043-.42l.005-1.87c0-.008.02-.032.033-.035l1.891.005c.15 0 .274-.037.39-.115a.53.53 0 0 0 .216-.421c0-.285-.255-.509-.583-.51l-1.899-.006a.062.062 0 0 1-.045-.023l.007-2.02c0-.008.018-.025.055-.025l2.281.005c.338.002.594-.228.595-.536 0-.33-.31-.51-.604-.51l-3.264-.009c-.325 0-.604.365-.605.666l-.016 6.2c-.002.389.282.718.62.719l3.346.008c.614.002.663-.403.663-.526 0-.299-.249-.518-.593-.519zm6.526.193c-.27-.457-1.172-1.934-1.604-2.664.544-.113.808-.253 1.057-.532.382-.422.461-.947.463-1.604.002-.624-.59-1.283-.816-1.428-.524-.343-1.137-.511-1.867-.513l-1.437-.004c-.36 0-.643.356-.644.665l-.016 5.983c-.002.539.444.946 1.035.948.25.001.504-.169.505-.548l.006-2.631c0-.115.007-.171.029-.203l1.67 2.689c.15.232.356.47.611.591.272.129.637.117.712.116.127-.002.26-.032.356-.142a.413.413 0 0 0 .096-.262.637.637 0 0 0-.076-.326l-.08-.135zm-2.074-3.837c-.238.169-.337.213-1.183.21l-.056-.002.006-2.03c0-.01.018-.03.031-.036l.418.001c.793.002 1.195.341 1.192 1.008 0 .377-.13.647-.408.85v-.001zm7.674-2.881l-4.62-.012c-.41-.001-.595.253-.596.507 0 .312.253.539.603.54l1.508.004h.018l.002.045-.015 5.697c-.002.434.46.816.986.818.285 0 .545-.25.545-.526l.017-5.985.001-.04c.03-.003.069-.005.123-.005l1.407.005c.517.001.595-.336.595-.537 0-.294-.24-.51-.574-.51v-.001zm2.037.084a.28.28 0 0 0-.069-.008c-.307 0-.515.211-.515.527l-.017 6.122c0 .297.22.62.49.718l.355.13c.233.086.396.01.47-.043.14-.097.217-.265.217-.474l.016-6.102c.001-.304-.162-.7-.947-.87zm4.836 2.685c-1.047-.58-1.152-.793-1.15-1.176 0-.236.57-.656 1.128-.655l1.112.003c.658.001.694-.472.694-.567 0-.286-.287-.548-.603-.548l-1.495-.005a2.704 2.704 0 0 0-1.678.598c-.418.358-.63.848-.632 1.457-.001.529.176.994.525 1.382.267.31.315.336 1.099.774l.456.256c1.094.602 1.207.839 1.206 1.237-.002.443-.61.983-1.318.981l-1.218-.002c-.46-.002-.664.282-.665.565 0 .317.269.548.64.55l1.426.003c1.61.005 2.693-.92 2.697-2.3 0-.561-.186-1.052-.557-1.462-.333-.359-.441-.43-1.668-1.092h.001zm3.774-2.662a.337.337 0 0 0-.068-.008c-.31 0-.516.21-.518.527l-.016 6.123c0 .296.22.618.49.718l.354.13c.234.085.396.009.471-.044.138-.098.216-.265.217-.475l.015-6.101c.002-.304-.162-.7-.945-.87zm13.756.04a.436.436 0 0 0-.345.115.591.591 0 0 0-.19.43l-.01 4.147-2.3-3.964-.01-.018c-.421-.625-.94-.711-1.392-.712-.325-.001-.544.21-.545.527l-.016 6.242c-.001.396.312.745.669.745.252.001.506-.174.507-.566l.011-4.651 2.612 4.547.021.033c.217.292.532.627 1.038.629.119.005.314-.002.455-.138.15-.143.151-.335.151-.407l.016-6.202c.002-.418-.257-.709-.673-.757zm-41.575.315c.001-.233-.15-.505-.575-.506l-.418-.001c-.894-.004-.894-.004-1.06.041l-.132.032c-.513.114-.957.318-1.492.68-1 .673-1.529 1.585-1.532 2.637l.008.767c-.013 1.046.512 1.96 1.508 2.639.535.366.979.572 1.485.687l.136.033c.166.046.166.046 1.085.048h.392c.426.002.577-.268.577-.501.002-.257-.298-.428-.495-.429l.029.002-.255-.018-.85-.002a2 2 0 0 0-.068-.01l-.225-.027a2 2 0 0 1-.806-.291c-.502-.338-.915-1.091-.94-1.718v-.089c.002-.328-.002-1.438-.002-1.438.002-.63.43-1.426.956-1.774.213-.144.495-.243.816-.29l.298-.035.836.003.253-.016-.028.002c.198 0 .498-.169.5-.425v-.001zm34.966 2.7l-1.573-.005c-.41 0-.596.245-.597.49 0 .309.242.475.723.493.169.005.452.014.57.04l.003.054-.007 2.305c0 .062-.011.1-.025.128l-.659-.002h.002a.98.98 0 0 0-.067-.01l-.225-.027a2.01 2.01 0 0 1-.807-.292c-.502-.336-.914-1.09-.94-1.718v-.121c.002-.363-.001-1.406-.001-1.406.001-.63.43-1.426.956-1.774.215-.145.49-.242.814-.288l.3-.036.835.003.255-.016a.322.322 0 0 1-.029.002c.198 0 .498-.17.498-.425.001-.233-.149-.505-.575-.507h-.418c-.895-.003-.895-.003-1.06.042l-.132.031c-.514.115-.959.318-1.493.681-.998.672-1.528 1.584-1.53 2.637l.005.767c-.01 1.046.514 1.96 1.51 2.639.533.364.977.57 1.483.686l.079.016c0 .01.101.024.101.024l.033.004c.152.029.3.034.755.037l.832.01.381.003c.286 0 .579-.296.58-.588l.008-3.265c.002-.307-.29-.61-.585-.611" fill="#fff"/><path fill-rule="evenodd" clip-rule="evenodd" d="M11.665 0c-.967.035-1.751.764-2.042 1.903l-.006.026a8.783 8.783 0 0 0-.351 2.426 5.403 5.403 0 0 0 .207 1.54 6.978 6.978 0 0 1-.632.414C7.216 4.626 4.999 3.74 2.535 3.904h-.003c-.048.003-.094.002-.14.006l.133-.005C1.42 3.905.515 4.48.157 5.41.052 5.683 0 5.97 0 6.258c-.002.703.3 1.407.85 1.914 1.816 1.845 4.255 2.565 6.7 2.143a7.5 7.5 0 0 1 .327.895c.079.345.118.71.12 1.087-3.291 1.88-5.947 5.336-7.37 9.761a4.166 4.166 0 0 0-.225 1.268c-.003 1.169.664 1.714 1.016 1.921 1.025.6 2.197.156 2.925-.544.073-.071.052-.052.073-.071 3.627-3.221 5.942-6.772 6.676-10.076.106-.039.214-.07.322-.103.476 1.52 1.333 2.944 2.484 3.97 1.358 1.21 2.518.638 2.842.434.9-.57 1.269-1.788.916-3.034l.029.12c-.495-2.395-1.659-3.985-3.326-4.655.01-.086.03-.405.18-.736.224-.492.624-1.06.834-1.32 1.898-.044 3.922-.675 5.337-2.196.447-.48.683-1.05.684-1.604 0-.285-.06-.567-.187-.83-.133-.28-.675-1.18-2.03-1.068l-.034.002-.033.003a9.586 9.586 0 0 0-5.039 2.243 3.852 3.852 0 0 1-.465-.125 6.231 6.231 0 0 0 .377-2.109 6.816 6.816 0 0 0-.28-1.932l-.008-.03-.01-.03C13.29.371 12.382-.025 11.664.001zM.863 8.189c-.005-.004-.008-.01-.013-.015-.022-.022-.045-.04-.067-.063l.08.078z" fill="#F60"/><path fill-rule="evenodd" clip-rule="evenodd" d="M11.977.756c-.337-.001-.737.305-1 .935-.293.709-.422 1.661-.423 2.375-.002.64.081 1.192.369 1.737-.044.052-.177.258-.431.468-.514.42-1.354.974-1.781 1.153-.895-1.142-2.47-2.56-5.014-2.709-.684-.04-1.18-.023-1.51.067-.616.17-.829.64-.88.907-.118.628.244 1.186.465 1.379C3.54 8.888 5.944 9.457 8.31 8.766a8.02 8.02 0 0 1 .808 1.864c.108.456.16.933.16 1.427-.001.205-.012.414-.03.624-1.957.983-4.575 3.092-6.214 6.516-.95 1.986-1.377 3.34-1.362 3.852.015.446.158.763.475.95.43.25 1.125.263 2.422-1.127 3.576-3.408 5.3-6.882 5.722-9.416.274-.12.846-.353 1.352-.474.338-.082.677-.083.768-.086.321 1.666 1.167 3.316 2.389 4.403.736.657 1.27.487 1.523.327.163-.103.694-.553.483-1.591-.21-1.042-.42-1.845-1.127-2.796a3.865 3.865 0 0 0-2.26-1.412c-.005-.062-.115-.983.196-1.837.34-.94 1.122-1.83 1.424-2.155 1.758.063 3.731-.442 5.036-1.847.283-.301.5-.768.31-1.194-.1-.225-.332-.495-.947-.446h-.013l-.011.002c-1.82.225-3.429 1.073-4.752 2.334-.752-.082-1.5-.303-1.972-.595a2.328 2.328 0 0 1-.336-.255 5.089 5.089 0 0 0 .698-2.563c.002-.644-.072-1.103-.262-1.649-.226-.649-.616-.866-.814-.866zm-9.22 5.096c.583-.086 1.625.04 2.282.246 1.168.345 2.038 1.103 2.532 1.657a5.515 5.515 0 0 1-2.9-.14 5.167 5.167 0 0 1-1.853-1.113c-.249-.239-.522-.576-.062-.65zm8.166 1.606c.43-.315.7-.63.757-.694.052.043.298.256.614.413a6.75 6.75 0 0 0 1.395.491c-.211.273-.884 1.112-1.174 2.015-.314.98-.236 2.02-.234 2.077a6.36 6.36 0 0 0-.807.09l-.018.003-.018.004c-.348.088-.69.2-1.028.325 0-.021.027-.96-.219-1.937-.198-.787-.654-1.616-.805-1.882a10.476 10.476 0 0 0 1.536-.905zM5.124 17.9c1.094-1.681 2.731-3.05 3.854-3.75-.733 2.746-2.759 5.812-5.886 8.574l-.269.17c-.049-.13.683-2.432 2.301-4.994zm10.431-1.456c-.938-.834-1.618-2.091-1.942-3.383 1.039.376 1.706 1.377 2.052 3.049l.005.02.005.019c.033.118.045.227.045.317 0 .038-.005.067-.008.098a1.167 1.167 0 0 1-.157-.12z" fill="#fff"/><path fill-rule="evenodd" clip-rule="evenodd" d="M20.067 4.414a.615.615 0 0 0-.352-.146c-.2-.022-.735.07-.866.103a8.097 8.097 0 0 0-2.251.828 8.92 8.92 0 0 0-1.877 1.387c-.842-.08-1.671-.294-2.275-.724a2.08 2.08 0 0 1-.38-.33c.394-.619.672-1.353.748-2.191a5.17 5.17 0 0 0-.085-1.468 5.34 5.34 0 0 0-.104-.438c-.055-.175-.105-.35-.308-.548a.567.567 0 0 0-.486-.133.689.689 0 0 0-.37.227 1.48 1.48 0 0 0-.294.573 7.957 7.957 0 0 0-.322 2.342c.012.434.085.903.285 1.35.05.11.106.217.171.32a4.81 4.81 0 0 1-.686.735c-.61.479-1.249.85-1.905 1.122a6.633 6.633 0 0 0-1.769-1.65A6.205 6.205 0 0 0 4 4.83c-.332-.02-1.259-.1-1.784.148-.166.079-.38.323-.363.67.014.312.286.725.584.997.348.316.854.679 1.275.908.717.39 1.4.583 1.89.686.776.164 1.966.03 2.392-.077.153-.04.308-.077.46-.122.086.135.17.275.249.42.259.483.486 1.01.66 1.587.16.544.23 1.186.21 1.84-.003.18-.016.386-.04.61-.381.186-.76.398-1.132.636-1.605 1.024-3.06 2.53-4.19 4.288a18.884 18.884 0 0 0-1.47 2.793c-.408.951-.774 1.891-.77 2.46.007.551.32.731.453.782.187.071.49.076.778-.087.25-.14.867-.678 1.671-1.48a27.576 27.576 0 0 0 2.153-2.436c1.122-1.465 1.966-2.943 2.474-4.274.324-.835.51-1.605.608-2.256.876-.4 1.747-.647 2.538-.642.157.97.501 1.848.889 2.575.36.661.781 1.215 1.213 1.648.217.21.424.424.732.564a.85.85 0 0 0 .549.064c.193-.045.36-.211.437-.34.21-.357.142-.918.102-1.174l-.076-.325c-.012.004-.074-.48-.42-1.285a4.462 4.462 0 0 0-.879-1.345 3.382 3.382 0 0 0-1.89-.956c-.032-.005-.065-.007-.097-.012-.055-.523.006-1.304.06-1.547.064-.284.099-.385.132-.472.316-.856.863-1.701 1.565-2.436.999.052 2.044-.076 3.03-.468.497-.2.978-.468 1.405-.815.22-.18.401-.34.61-.59.096-.14.19-.269.222-.513a.527.527 0 0 0-.162-.44zm-12.185 3.3a5.787 5.787 0 0 1-3.838-.192c-1.7-.683-2.393-1.7-1.906-2.259.192-.22.693-.228.843-.23.337-.004.672.017.993.062.992.134 1.91.5 2.714 1.063a6.503 6.503 0 0 1 1.48 1.469 7.22 7.22 0 0 1-.286.088zm-.87 10.689c-1.22 1.784-4.005 4.628-4.35 4.453-.173-.088.112-1.123.575-2.213a22.655 22.655 0 0 1 1.498-2.875c1.068-1.707 2.59-3.374 4.673-4.494-.047.236-.438 2.39-2.396 5.129zm8.488-4.14c.31.72.374 1.181.384 1.175l.077.332c.023.085.038.26.037.41 0 .123-.033.41-.27.31-.155-.064-.34-.237-.539-.433a6.644 6.644 0 0 1-1.105-1.505 7.717 7.717 0 0 1-.789-2.207c1.275.233 1.92 1.232 2.205 1.917zM11.562 2.727c.033-.212.074-.394.118-.615.046-.221.155-.568.194-.635.055-.104.076-.064.098-.011.055.13.11.351.142.527.104.505.104.946.077 1.292a4.218 4.218 0 0 1-.498 1.667 2.766 2.766 0 0 1-.22-1.077c-.01-.388.028-.776.089-1.148zm1.224 6.798c-.032.088-.121.421-.136.5a6.612 6.612 0 0 0-.078 1.629 5.04 5.04 0 0 0-1.72.302 9.817 9.817 0 0 0-.668.246 5.96 5.96 0 0 0 .011-.3c.017-.722-.052-1.394-.25-2.042a8.71 8.71 0 0 0-.738-1.688 9.416 9.416 0 0 0-.2-.322 8.202 8.202 0 0 0 1.958-1.085c.257-.212.5-.453.723-.721.121.121.253.234.393.333.63.437 1.353.663 2.103.778a7.612 7.612 0 0 0-1.398 2.37zm6.74-4.571a.273.273 0 0 1-.02.027 3.694 3.694 0 0 1-.504.48 4.82 4.82 0 0 1-1.243.721 6.313 6.313 0 0 1-2.126.43 7.694 7.694 0 0 1 2.623-1.437 7.207 7.207 0 0 1 1.214-.27c.08-.016.077.019.056.049" fill="#002A44"/><path fill-rule="evenodd" clip-rule="evenodd" d="M21.11 20.869h-.326l-1.393 3.256.472.001.408-.955 1.372.004.428.957.472.001-1.433-3.264zm-.171.713l.516 1.175-1.002-.003.486-1.173zm4.453.558a1.306 1.306 0 0 0-.623-.178c-.425 0-.7.218-.7.582-.002.574.99.734.989 1.026 0 .152-.142.232-.312.24-.17 0-.42-.09-.695-.28v.455c.273.143.477.197.737.198.4.002.7-.25.7-.625 0-.218-.127-.365-.476-.599-.373-.218-.515-.332-.514-.428 0-.116.11-.198.28-.198.156 0 .377.069.613.23l.001-.423zm2.35 2.007l.005-2.134-.422-.001-.004 1.526c-.137.194-.317.298-.506.297-.288 0-.434-.172-.433-.472l.003-1.354h-.42l-.003 1.325c-.001.542.301.853.73.854.209 0 .455-.123.63-.313v.27l.42.002zm2.24-.374c-.094.071-.18.114-.222.114-.052 0-.082-.029-.08-.11l.002-1.098c0-.485-.338-.704-.769-.705-.307-.001-.539.093-.705.288l-.001.46c.204-.241.44-.35.672-.35.255 0 .382.11.382.376v.115l-.374.132c-.341.122-.724.25-.725.673 0 .275.207.525.518.525a.915.915 0 0 0 .573-.218c.037.152.136.22.321.22.132 0 .212-.037.406-.165v-.257h.002zm-.723-.054c-.114.11-.237.175-.37.175a.29.29 0 0 1-.301-.3c0-.252.313-.375.672-.498v.624h-.001zm2.844-1.694l-.42-.001-.006 2.134.422.001.005-2.134h-.001zm.045-.646a.254.254 0 0 0-.25-.253.253.253 0 0 0-.251.251c0 .138.113.253.25.253.136 0 .25-.113.25-.251zm2.397-.455l-.42-.001-.004 1.15a1.207 1.207 0 0 0-.443-.086c-.62-.002-1.06.439-1.062 1.057-.002.684.394 1.117 1.028 1.12l.892.002.01-3.242h-.001zm-.428 2.884l-.426-.002c-.486-.001-.646-.3-.646-.7.003-.446.277-.74.683-.739.142 0 .251.025.392.082l-.004 1.36h.001zm2.77-.254c-.246.161-.488.255-.742.255-.408-.002-.647-.221-.713-.643l1.493.003c.003-.79-.355-1.174-.917-1.176-.587-.001-.994.435-.995 1.081-.003.59.365 1.138 1.026 1.14.36 0 .593-.08.848-.25v-.41zm-1.444-.67c.058-.336.252-.527.574-.526.298 0 .48.206.494.529l-1.068-.002zm2.351-.843l-.42-.002-.006 2.134.42.002.004-1.531c.199-.224.346-.308.53-.308.255 0 .416.205.415.52l-.004 1.321h.42l.003-1.316c.003-.584-.318-.86-.72-.861a.82.82 0 0 0-.633.321h-.01l.001-.28zm2.445-.436l-.79.773-.002.047.37.001-.004 1.126c-.002.385.23.672.688.674.137 0 .363-.063.51-.142l.002-.395a.908.908 0 0 1-.477.155c-.123 0-.303-.072-.303-.323l.004-1.093.671.002.001-.381-.672-.002.002-.442zm1.511.445h-.42l-.006 2.134h.42l.007-2.133zm.044-.645a.253.253 0 0 0-.25-.254.253.253 0 0 0-.002.504c.138 0 .251-.113.252-.25zm2.397-.455l-.42-.001-.003 1.15a1.247 1.247 0 0 0-.444-.087c-.62-.001-1.06.44-1.062 1.057-.002.685.394 1.118 1.027 1.12l.893.003.008-3.242zm-.428 2.884l-.425-.001c-.487-.002-.647-.301-.646-.7.001-.447.276-.741.683-.74a.94.94 0 0 1 .391.082l-.003 1.36v-.001zm2.642-.017c-.095.071-.18.114-.223.114-.051 0-.08-.03-.08-.11l.004-1.097c0-.485-.339-.705-.769-.706-.307-.001-.539.093-.705.288l-.001.46c.204-.24.441-.35.672-.349.256 0 .383.11.383.376v.114l-.373.133c-.342.122-.725.25-.726.673 0 .276.206.524.518.525a.909.909 0 0 0 .573-.218c.036.153.136.22.321.22.132 0 .212-.037.406-.166l.001-.256zm-.723-.054c-.114.109-.237.175-.37.174a.29.29 0 0 1-.3-.3c0-.251.311-.374.671-.498v.624zm2.937-2.801l-.42-.001-.004 1.15a1.25 1.25 0 0 0-.444-.087c-.618-.002-1.06.439-1.061 1.057-.002.685.394 1.118 1.028 1.12l.893.002.008-3.241zm-.428 2.884l-.425-.002c-.487-.001-.647-.301-.646-.7.002-.446.276-.74.683-.74.142 0 .25.025.392.082l-.004 1.36zm2.77-.255c-.247.162-.487.256-.742.255-.406 0-.648-.22-.712-.643l1.494.003c.001-.788-.357-1.174-.92-1.175-.584-.002-.993.434-.995 1.08-.001.59.366 1.139 1.028 1.14.359 0 .59-.08.846-.25v-.41zm-1.445-.669c.058-.337.252-.527.574-.526.297.002.482.205.494.529l-1.068-.002zm3.666-.84l-.421-.003-.006 2.135.421.002.003-1.531c.2-.223.346-.308.532-.308.255 0 .415.205.413.52l-.003 1.32.42.001.004-1.316c.002-.584-.32-.861-.72-.862a.816.816 0 0 0-.635.321h-.009l.001-.28zm3.591 1.763c-.094.07-.18.113-.222.113-.052 0-.08-.028-.08-.109l.002-1.098c.002-.485-.338-.704-.768-.706-.306 0-.539.095-.705.288v.46c.203-.241.44-.35.67-.348.256 0 .383.11.383.376v.114l-.373.132c-.34.122-.724.25-.726.673 0 .275.207.525.52.525a.912.912 0 0 0 .571-.218c.038.153.137.22.321.22.133 0 .213-.037.407-.165v-.257zm-.723-.055c-.114.11-.236.176-.369.175a.29.29 0 0 1-.302-.3c.001-.252.313-.375.672-.497v.622zm2.443-1.695l-.005 2.134.42.002.003-1.117c.001-.366.229-.655.517-.654.1 0 .264.087.392.21l.224-.365c-.176-.167-.336-.248-.506-.248-.199 0-.402.156-.615.53h-.01l.002-.49-.422-.002zm3.517 1.526c-.245.161-.488.255-.742.255-.407-.001-.647-.22-.712-.643l1.493.003c.002-.789-.357-1.174-.919-1.175-.586-.002-.994.434-.995 1.08-.002.59.366 1.139 1.028 1.14.359 0 .59-.08.846-.25l.001-.41zm-1.444-.67c.057-.338.251-.526.573-.526.298 0 .481.205.494.529l-1.067-.003zm3.776-1.948h-.42l-.004 1.15a1.223 1.223 0 0 0-.443-.087c-.62-.001-1.06.44-1.061 1.058-.002.684.393 1.118 1.027 1.12l.893.002.008-3.243zm-.428 2.884h-.425c-.487-.003-.646-.302-.645-.701 0-.446.276-.74.682-.74.141 0 .25.024.392.082l-.004 1.359zm2.77-.253c-.246.16-.487.254-.743.254-.406-.001-.646-.22-.71-.643l1.492.004c.002-.79-.356-1.175-.918-1.176-.586-.002-.995.434-.996 1.08-.001.59.367 1.139 1.028 1.14.359.001.59-.08.846-.25v-.41h.001zm-1.444-.67c.057-.336.252-.526.573-.526.298 0 .481.206.496.53l-1.07-.003z" fill="#fff"/></svg>